<?xml version="1.0" encoding="utf-8"?>
<!-- Generator: Adobe Illustrator 24.1.2, SVG Export Plug-In . SVG Version: 6.00 Build 0)  -->
<svg version="1.1" id="Layer_1" xmlns="http://www.w3.org/2000/svg" xmlns:xlink="http://www.w3.org/1999/xlink" x="0px" y="0px"
	 width="80px" height="80px" viewBox="0 0 80 80" style="enable-background:new 0 0 80 80;" xml:space="preserve">
<style type="text/css">
	.st0{opacity:0.35;enable-background:new    ;}
	.st1{fill:#FC466B;}
</style>
<ellipse class="st0" cx="39.5" cy="74.5" rx="17.4" ry="5.5">
<animate  accumulate="none" additive="replace" attributeName="stop-color" calcMode="linear" dur="8s" fill="remove" repeatCount="indefinite" restart="always" values="#9C26F9; #FF1F13; #9C26F9">
	</animate>
<animate  accumulate="none" additive="replace" attributeName="stop-color" calcMode="linear" dur="8s" fill="remove" repeatCount="indefinite" restart="always" values="#7AD2FA; #DE93FF; #7AD2FA">
	</animate>
</ellipse>
<path class="st1" d="M53.2,19.5c-3.9-3.9-8.4-5.6-13.7-5.6s-9.8,2-13.7,5.6c-3.7,3.7-5.5,8.2-5.5,13.7c0,4.5,1.7,10.2,5.3,17.6
	c3.6,7.3,6.4,12.5,8.5,15.4c2.1,3.2,4,5.6,5.3,7.6l4.9-6.8c3.3-4.6,6.4-10.2,9.7-17s4.9-12.3,4.9-16.7
	C58.7,27.8,56.9,23.2,53.2,19.5z M39.5,43.9c-6.3,0-11.4-5.1-11.4-11.4S33.2,21,39.5,21s11.4,5.1,11.4,11.4S45.8,43.9,39.5,43.9z"/>
</svg>
