<?xml version="1.0" encoding="utf-8"?>
<!-- Generator: Adobe Illustrator 24.1.2, SVG Export Plug-In . SVG Version: 6.00 Build 0)  -->
<svg version="1.1" id="Layer_1" xmlns="http://www.w3.org/2000/svg" xmlns:xlink="http://www.w3.org/1999/xlink" x="0px" y="0px"
	 width="100px" height="100px" viewBox="0 0 100 100" style="enable-background:new 0 0 100 100;" xml:space="preserve">
<style type="text/css">
	.st0{fill:#F5F5F5;}
</style>
<polygon class="st0" points="0,84.8 25,74.8 50,84.8 75,74.8 100,84.8 100,100.8 0,100.8 "/>
<polygon class="st0" points="75,57.9 50,67.9 25,57.9 0,67.9 0,73.7 25,63.6 50,73.7 75,63.5 100,73.7 100,67.9 "/>
<polygon class="st0" points="75,43.5 50,53.5 25,43.5 0,53.5 0,57.8 25,47.8 50,57.8 75,47.8 100,57.8 100,53.5 "/>
<polygon class="st0" points="75,29.4 50,39.5 25,29.4 0,39.5 0,41.8 25,31.8 50,41.8 75,31.8 100,41.8 100,39.5 "/>
<polygon class="st0" points="75,15 50,25.1 25,15.1 0,25.1 0,26 25,16 50,26 75,15.9 100,26 100,25.1 "/>
</svg>
