<?xml version="1.0" standalone="no"?>
<!DOCTYPE svg PUBLIC "-//W3C//DTD SVG 20010904//EN"
 "http://www.w3.org/TR/2001/REC-SVG-20010904/DTD/svg10.dtd">
<svg version="1.0" xmlns="http://www.w3.org/2000/svg"
 width="900.000000pt" height="900.000000pt" viewBox="0 0 900.000000 900.000000"
 preserveAspectRatio="xMidYMid meet">
<metadata>
Created by potrace 1.10, written by Peter Selinger 2001-2011
</metadata>
<g transform="translate(0.000000,900.000000) scale(0.100000,-0.100000)"
fill="#000000" stroke="none">
<path d="M0 4500 l0 -4500 4500 0 4500 0 0 4500 0 4500 -4500 0 -4500 0 0
-4500z m3560 1285 c208 -18 419 -100 530 -207 116 -111 166 -201 196 -353 25
-124 11 -295 -31 -375 l-16 -30 -159 0 c-121 0 -160 3 -160 13 0 6 7 35 16 62
24 78 21 302 -5 383 -59 182 -157 300 -311 375 -146 71 -250 87 -561 87 l-237
0 -6 -22 c-3 -13 -6 -220 -6 -461 l0 -437 -177 2 -178 3 -3 460 c-1 253 0 470
3 482 3 12 13 24 23 26 25 7 995 0 1082 -8z m2270 0 c252 -28 458 -154 545
-333 55 -111 65 -157 65 -285 0 -133 -15 -207 -61 -292 l-27 -50 -148 -3 c-81
-1 -154 0 -161 3 -11 4 -9 13 6 43 54 107 75 284 46 395 -8 32 -15 64 -15 72
0 24 -61 147 -94 190 -84 108 -203 182 -331 204 -47 8 -157 11 -335 9 l-265
-3 -5 -455 -5 -455 -175 0 -175 0 -3 474 c-1 330 1 478 9 487 8 10 113 12 537
10 290 -2 556 -7 592 -11z m-2323 -1211 c79 -10 53 -24 -42 -24 -94 0 -96 -2
-83 -68 5 -28 4 -51 -3 -64 -6 -12 -8 -38 -5 -59 5 -31 3 -39 -9 -39 -13 0
-15 20 -15 123 0 68 3 127 7 130 8 9 82 9 150 1z m408 0 c14 -3 25 -11 25 -18
0 -8 -27 -10 -92 -6 -102 6 -118 -1 -118 -49 0 -31 13 -46 45 -54 19 -4 19 -5
-1 -6 -35 -2 -47 -26 -41 -76 5 -36 4 -45 -8 -45 -12 0 -15 21 -15 123 0 68 3
126 6 129 7 8 169 10 199 2z m392 -9 c2 -7 -25 -11 -72 -11 -68 -1 -95 7 -62
19 24 8 130 2 134 -8z m341 5 c39 0 72 -4 72 -8 0 -4 -42 -8 -93 -7 -66 0 -99
-4 -110 -14 -15 -12 -17 -11 -17 7 0 22 22 33 55 26 11 -2 53 -4 93 -4z m900
1 c6 -1 12 -5 12 -11 0 -5 -34 -9 -82 -7 l-83 2 0 -110 0 -110 80 -1 c95 0
104 -2 87 -13 -10 -6 -96 -7 -194 -1 -12 0 -10 234 2 246 7 7 114 10 178 5z
m-648 -126 c0 -69 -3 -125 -7 -125 -5 0 -8 56 -8 125 0 69 3 125 8 125 4 0 7
-56 7 -125z m162 8 l3 -118 100 -5 c126 -6 104 -17 -30 -15 l-100 2 -3 127
c-2 106 0 126 12 126 13 0 16 -21 18 -117z m-918 79 c-6 -4 -13 -15 -17 -24
-8 -21 -27 -24 -27 -4 0 14 41 47 50 39 2 -2 0 -7 -6 -11z m1482 -39 c-4 -4
-16 3 -26 17 -29 37 -24 49 7 18 15 -15 23 -31 19 -35z m-1266 43 c0 -2 3 -11
6 -20 9 -23 -13 -20 -26 4 -9 16 -8 20 5 20 8 0 15 -2 15 -4z m390 -22 c0 -14
-4 -23 -10 -19 -5 3 -10 15 -10 26 0 10 5 19 10 19 6 0 10 -12 10 -26z m-1133
-48 c-4 -9 -11 -16 -17 -16 -11 0 -14 53 -3 64 11 10 27 -30 20 -48z m-1722
24 c0 -13 -48 -15 -362 -18 -359 -2 -363 -2 -363 18 0 20 4 20 363 18 314 -3
362 -5 362 -18z m5940 0 c0 -13 -48 -15 -362 -18 -359 -2 -363 -2 -363 18 0
20 4 20 363 18 314 -3 362 -5 362 -18z m-3445 -46 c0 -21 -4 -33 -10 -29 -17
10 -11 65 7 65 2 0 3 -16 3 -36z m147 -7 c-12 -4 -25 -13 -29 -20 -4 -7 -8 4
-8 25 l0 37 30 -17 c28 -16 29 -17 7 -25z m183 13 c0 -5 -10 -10 -22 -10 -19
0 -20 2 -8 10 19 13 30 13 30 0z m-810 -19 c5 -11 10 -22 10 -25 0 -12 -23 -5
-34 10 -7 9 -28 19 -46 24 -35 8 -34 8 12 9 37 1 50 -3 58 -18z m-333 -18 c-8
-9 -20 -12 -27 -8 -8 5 -6 11 7 20 23 17 39 7 20 -12z m-136 4 c-1 -12 -15 -9
-19 4 -3 6 1 10 8 8 6 -3 11 -8 11 -12z m1314 -17 c-6 -9 -9 -9 -16 1 -10 17
0 34 13 21 6 -6 7 -16 3 -22z m-628 -17 c15 -40 34 -48 115 -48 43 0 78 -3 78
-7 0 -11 -31 -16 -90 -14 -44 1 -63 7 -93 30 -20 16 -37 35 -37 42 0 20 19 17
27 -3z m1503 7 c0 -13 -40 -53 -47 -47 -6 7 27 57 38 57 5 0 9 -4 9 -10z
m-1684 -25 c4 -15 16 -28 30 -31 27 -7 23 -24 -6 -24 -26 0 -50 27 -50 56 0
32 18 31 26 -1z m420 9 c-3 -9 -6 -18 -6 -20 0 -2 -7 -4 -15 -4 -13 0 -13 3
-3 20 15 24 33 27 24 4z m379 -33 c-17 -16 -37 -20 -120 -22 -127 -3 -125 -3
-125 22 0 18 3 19 14 10 19 -16 113 -25 169 -17 34 5 48 12 52 28 5 15 10 17
18 9 8 -8 6 -16 -8 -30z m-1937 -628 l-3 -448 -164 -3 c-112 -2 -168 1 -177 9
-12 9 -14 88 -14 444 0 237 3 435 7 438 3 4 84 7 180 7 l173 0 -2 -447z m2242
27 l5 -415 310 -3 c263 -2 321 0 385 14 41 10 84 23 95 31 11 7 25 13 32 13
28 0 144 84 198 142 56 61 109 142 133 208 40 107 55 272 32 350 -5 19 -10 45
-10 57 0 23 0 23 176 23 l175 0 14 -34 c8 -18 17 -62 21 -97 6 -58 3 -84 -25
-221 -15 -72 -91 -205 -157 -277 -128 -138 -243 -201 -454 -248 -64 -15 -158
-17 -660 -21 -321 -1 -595 0 -607 3 l-23 5 0 439 c0 241 3 441 7 445 4 3 84 5
177 4 l171 -3 5 -415z"/>
</g>
</svg>
